<svg width="48" height="48" viewBox="0 0 48 48" fill="none" xmlns="http://www.w3.org/2000/svg">
<path d="M23.7 23.7C24.5667 22.6333 25.2083 21.5333 25.625 20.4C26.0417 19.2667 26.25 17.95 26.25 16.45C26.25 14.95 26.0417 13.6333 25.625 12.5C25.2083 11.3667 24.5667 10.2667 23.7 9.2C26.2333 8.63333 28.4583 9.01666 30.375 10.35C32.2917 11.6833 33.25 13.7167 33.25 16.45C33.25 19.1833 32.2917 21.2167 30.375 22.55C28.4583 23.8833 26.2333 24.2667 23.7 23.7ZM34.5 40V35.3C34.5 33.6 34.0667 32.0167 33.2 30.55C32.3333 29.0833 30.8333 27.85 28.7 26.85C34.4667 27.5833 38.4083 28.65 40.525 30.05C42.6417 31.45 43.7 33.2 43.7 35.3V40H34.5ZM40 25.55V20.55H35V17.55H40V12.55H43V17.55H48V20.55H43V25.55H40ZM15.75 23.95C13.55 23.95 11.75 23.25 10.35 21.85C8.95 20.45 8.25 18.65 8.25 16.45C8.25 14.25 8.95 12.45 10.35 11.05C11.75 9.65 13.55 8.95 15.75 8.95C17.95 8.95 19.75 9.65 21.15 11.05C22.55 12.45 23.25 14.25 23.25 16.45C23.25 18.65 22.55 20.45 21.15 21.85C19.75 23.25 17.95 23.95 15.75 23.95ZM0 40V35.3C0 34.1333 0.308333 33.075 0.925 32.125C1.54167 31.175 2.36667 30.4667 3.4 30C5.8 28.9333 7.94167 28.1667 9.825 27.7C11.7083 27.2333 13.6833 27 15.75 27C17.8167 27 19.7833 27.2333 21.65 27.7C23.5167 28.1667 25.65 28.9333 28.05 30C29.0833 30.4667 29.9167 31.175 30.55 32.125C31.1833 33.075 31.5 34.1333 31.5 35.3V40H0ZM15.75 20.95C17.05 20.95 18.125 20.525 18.975 19.675C19.825 18.825 20.25 17.75 20.25 16.45C20.25 15.15 19.825 14.075 18.975 13.225C18.125 12.375 17.05 11.95 15.75 11.95C14.45 11.95 13.375 12.375 12.525 13.225C11.675 14.075 11.25 15.15 11.25 16.45C11.25 17.75 11.675 18.825 12.525 19.675C13.375 20.525 14.45 20.95 15.75 20.95ZM3 37H28.5V35.3C28.5 34.7667 28.3667 34.2667 28.1 33.8C27.8333 33.3333 27.4167 32.9667 26.85 32.7C24.55 31.6333 22.6 30.9167 21 30.55C19.4 30.1833 17.65 30 15.75 30C13.85 30 12.1083 30.1833 10.525 30.55C8.94167 30.9167 6.96667 31.6333 4.6 32.7C4.1 32.9333 3.70833 33.2917 3.425 33.775C3.14167 34.2583 3 34.7667 3 35.3V37Z" fill="black"/>
</svg>
