<svg width="48" height="48" viewBox="0 0 48 48" fill="none" xmlns="http://www.w3.org/2000/svg">
<path d="M23.75 41C23.9167 41 24.1083 40.9583 24.325 40.875C24.5417 40.7917 24.7167 40.6833 24.85 40.55L41.7 23.65C42.1333 23.2167 42.4583 22.725 42.675 22.175C42.8917 21.625 43 21.0667 43 20.5C43 19.9333 42.8917 19.3667 42.675 18.8C42.4583 18.2333 42.1333 17.7333 41.7 17.3L32.7 8.29999C32.2667 7.86665 31.7667 7.54165 31.2 7.32499C30.6333 7.10832 30.0667 6.99999 29.5 6.99999C28.9333 6.99999 28.375 7.10832 27.825 7.32499C27.275 7.54165 26.7833 7.86665 26.35 8.29999L25.45 9.19999L29.5 13.3C29.9333 13.7667 30.3167 14.3083 30.65 14.925C30.9833 15.5417 31.15 16.2167 31.15 16.95C31.15 18.2167 30.6583 19.3333 29.675 20.3C28.6917 21.2667 27.5667 21.75 26.3 21.75C25.4667 21.75 24.775 21.625 24.225 21.375C23.675 21.125 23.1667 20.7667 22.7 20.3L19.05 16.65L10 25.7C9.83333 25.8667 9.71667 26.0417 9.65 26.225C9.58333 26.4083 9.55 26.6 9.55 26.8C9.55 27.2333 9.69167 27.5917 9.975 27.875C10.2583 28.1583 10.6167 28.3 11.05 28.3C11.25 28.3 11.4417 28.25 11.625 28.15C11.8083 28.05 11.9667 27.9333 12.1 27.8L19 20.9L21.1 23L14.25 29.85C14.0833 30.0167 13.9667 30.2 13.9 30.4C13.8333 30.6 13.8 30.8 13.8 31C13.8 31.4 13.95 31.75 14.25 32.05C14.55 32.35 14.9 32.5 15.3 32.5C15.5 32.5 15.6917 32.4583 15.875 32.375C16.0583 32.2917 16.2167 32.1833 16.35 32.05L23.25 25.15L25.35 27.25L18.5 34.1C18.3667 34.2333 18.2583 34.4083 18.175 34.625C18.0917 34.8417 18.05 35.05 18.05 35.25C18.05 35.65 18.2 36 18.5 36.3C18.8 36.6 19.15 36.75 19.55 36.75C19.75 36.75 19.9333 36.7167 20.1 36.65C20.2667 36.5833 20.4333 36.4667 20.6 36.3L27.5 29.4L29.6 31.5L22.7 38.4C22.5333 38.5667 22.4167 38.75 22.35 38.95C22.2833 39.15 22.25 39.3333 22.25 39.5C22.25 39.9667 22.3833 40.3333 22.65 40.6C22.9167 40.8667 23.2833 41 23.75 41ZM23.75 44C22.65 44 21.6667 43.5917 20.8 42.775C19.9333 41.9583 19.4167 40.95 19.25 39.75C18.1167 39.5833 17.1667 39.1167 16.4 38.35C15.6333 37.5833 15.1667 36.6333 15 35.5C13.8667 35.3333 12.925 34.8583 12.175 34.075C11.425 33.2917 10.9667 32.35 10.8 31.25C9.56667 31.0833 8.55 30.5833 7.75 29.75C6.95 28.9167 6.55 27.9167 6.55 26.75C6.55 26.1833 6.65833 25.6167 6.875 25.05C7.09167 24.4833 7.41667 23.9833 7.85 23.55L19.05 12.35L24.55 17.85C24.8167 18.1167 25.1083 18.325 25.425 18.475C25.7417 18.625 26.05 18.7 26.35 18.7C26.7833 18.7 27.1917 18.5083 27.575 18.125C27.9583 17.7417 28.15 17.3333 28.15 16.9C28.15 16.7 28.0917 16.475 27.975 16.225C27.8583 15.975 27.6667 15.7167 27.4 15.45L20.25 8.29999C19.8167 7.86665 19.3167 7.54165 18.75 7.32499C18.1833 7.10832 17.6167 6.99999 17.05 6.99999C16.4833 6.99999 15.925 7.10832 15.375 7.32499C14.825 7.54165 14.3333 7.86665 13.9 8.29999L6.3 15.9C5.83333 16.3667 5.50833 16.8583 5.325 17.375C5.14167 17.8917 5.03333 18.4667 5 19.1C4.96667 19.7667 5.09167 20.4083 5.375 21.025C5.65833 21.6417 6 22.2 6.4 22.7L4.25 24.85C3.58333 24.1167 3.04167 23.2333 2.625 22.2C2.20833 21.1667 2 20.1167 2 19.05C2 18.05 2.19167 17.0917 2.575 16.175C2.95833 15.2583 3.5 14.45 4.2 13.75L11.75 6.19999C12.4833 5.46665 13.3167 4.92499 14.25 4.57499C15.1833 4.22499 16.1333 4.04999 17.1 4.04999C18.0667 4.04999 19.0083 4.22499 19.925 4.57499C20.8417 4.92499 21.6667 5.46665 22.4 6.19999L23.3 7.09999L24.2 6.19999C24.9333 5.46665 25.7667 4.92499 26.7 4.57499C27.6333 4.22499 28.5833 4.04999 29.55 4.04999C30.5167 4.04999 31.4583 4.22499 32.375 4.57499C33.2917 4.92499 34.1167 5.46665 34.85 6.19999L43.8 15.15C44.5333 15.8833 45.0833 16.7167 45.45 17.65C45.8167 18.5833 46 19.5333 46 20.5C46 21.4667 45.8167 22.4083 45.45 23.325C45.0833 24.2417 44.5333 25.0667 43.8 25.8L26.95 42.65C26.5167 43.0833 26.025 43.4167 25.475 43.65C24.925 43.8833 24.35 44 23.75 44Z" fill="black"/>
</svg>
