<svg width="48" height="48" viewBox="0 0 48 48" fill="none" xmlns="http://www.w3.org/2000/svg">
<path d="M22.5001 45.9V42.15C17.9334 41.6833 14.1334 39.9333 11.1001 36.9C8.06676 33.8667 6.31676 30.0667 5.8501 25.5H2.1001V22.5H5.8501C6.31676 17.9333 8.06676 14.1333 11.1001 11.1C14.1334 8.06667 17.9334 6.31667 22.5001 5.85V2.1H25.5001V5.85C30.0668 6.31667 33.8668 8.06667 36.9001 11.1C39.9334 14.1333 41.6834 17.9333 42.1501 22.5H45.9001V25.5H42.1501C41.6834 30.0667 39.9334 33.8667 36.9001 36.9C33.8668 39.9333 30.0668 41.6833 25.5001 42.15V45.9H22.5001ZM24.0001 39.2C28.1668 39.2 31.7418 37.7083 34.7251 34.725C37.7084 31.7417 39.2001 28.1667 39.2001 24C39.2001 19.8333 37.7084 16.2583 34.7251 13.275C31.7418 10.2917 28.1668 8.8 24.0001 8.8C19.8334 8.8 16.2584 10.2917 13.2751 13.275C10.2918 16.2583 8.8001 19.8333 8.8001 24C8.8001 28.1667 10.2918 31.7417 13.2751 34.725C16.2584 37.7083 19.8334 39.2 24.0001 39.2ZM24.0001 31.5C21.9001 31.5 20.1251 30.775 18.6751 29.325C17.2251 27.875 16.5001 26.1 16.5001 24C16.5001 21.9 17.2251 20.125 18.6751 18.675C20.1251 17.225 21.9001 16.5 24.0001 16.5C26.1001 16.5 27.8751 17.225 29.3251 18.675C30.7751 20.125 31.5001 21.9 31.5001 24C31.5001 26.1 30.7751 27.875 29.3251 29.325C27.8751 30.775 26.1001 31.5 24.0001 31.5ZM24.0001 28.5C25.2668 28.5 26.3334 28.0667 27.2001 27.2C28.0668 26.3333 28.5001 25.2667 28.5001 24C28.5001 22.7333 28.0668 21.6667 27.2001 20.8C26.3334 19.9333 25.2668 19.5 24.0001 19.5C22.7334 19.5 21.6668 19.9333 20.8001 20.8C19.9334 21.6667 19.5001 22.7333 19.5001 24C19.5001 25.2667 19.9334 26.3333 20.8001 27.2C21.6668 28.0667 22.7334 28.5 24.0001 28.5Z" fill="black"/>
</svg>
