<svg width="48" height="48" viewBox="0 0 48 48" fill="none" xmlns="http://www.w3.org/2000/svg">
<path d="M0 40.8V37.2H6.3V18.84C6.3 15.56 7.5375 12.59 10.0125 9.93C12.4875 7.27 15.75 5.6 19.8 4.92V3.18C19.8 2.26 20.2125 1.5 21.0375 0.9C21.8625 0.3 22.85 0 24 0C25.15 0 26.1375 0.3 26.9625 0.9C27.7875 1.5 28.2 2.26 28.2 3.18V4.92C32.25 5.6 35.525 7.27 38.025 9.93C40.525 12.59 41.775 15.56 41.775 18.84V37.2H48V40.8H0ZM24 48C22.4 48 21 47.53 19.8 46.59C18.6 45.65 18 44.52 18 43.2H30C30 44.52 29.4125 45.65 28.2375 46.59C27.0625 47.53 25.65 48 24 48ZM10.8 37.2H37.275V18.84C37.275 15.84 36.0125 13.31 33.4875 11.25C30.9625 9.19 27.825 8.16 24.075 8.16C20.375 8.16 17.2375 9.19 14.6625 11.25C12.0875 13.31 10.8 15.84 10.8 18.84V37.2Z" fill="#4D4D4D"/>
</svg>
