<svg width="48" height="48" viewBox="0 0 48 48" fill="none" xmlns="http://www.w3.org/2000/svg">
<path d="M24 29.5C25.7 29.5 27.2417 29.1 28.625 28.3C30.0083 27.5 31.1167 26.4333 31.95 25.1C30.8167 24.2333 29.5833 23.5833 28.25 23.15C26.9167 22.7167 25.5 22.5 24 22.5C22.5 22.5 21.0833 22.7167 19.75 23.15C18.4167 23.5833 17.1833 24.2333 16.05 25.1C16.8833 26.4333 17.9917 27.5 19.375 28.3C20.7583 29.1 22.3 29.5 24 29.5ZM24 19.5C24.9667 19.5 25.7917 19.1583 26.475 18.475C27.1583 17.7917 27.5 16.9667 27.5 16C27.5 15.0333 27.1583 14.2083 26.475 13.525C25.7917 12.8417 24.9667 12.5 24 12.5C23.0333 12.5 22.2083 12.8417 21.525 13.525C20.8417 14.2083 20.5 15.0333 20.5 16C20.5 16.9667 20.8417 17.7917 21.525 18.475C22.2083 19.1583 23.0333 19.5 24 19.5ZM24 40.05C28.4333 36.0167 31.7083 32.3583 33.825 29.075C35.9417 25.7917 37 22.9 37 20.4C37 16.4667 35.7417 13.25 33.225 10.75C30.7083 8.25 27.6333 7 24 7C20.3667 7 17.2917 8.25 14.775 10.75C12.2583 13.25 11 16.4667 11 20.4C11 22.9 12.0833 25.7917 14.25 29.075C16.4167 32.3583 19.6667 36.0167 24 40.05ZM24 44C18.6333 39.4333 14.625 35.1917 11.975 31.275C9.325 27.3583 8 23.7333 8 20.4C8 15.4 9.60833 11.4167 12.825 8.45C16.0417 5.48333 19.7667 4 24 4C28.2333 4 31.9583 5.48333 35.175 8.45C38.3917 11.4167 40 15.4 40 20.4C40 23.7333 38.675 27.3583 36.025 31.275C33.375 35.1917 29.3667 39.4333 24 44Z" fill="black"/>
</svg>
