<svg width="48" height="48" viewBox="0 0 48 48" fill="none" xmlns="http://www.w3.org/2000/svg">
<path d="M36.35 44C34.7833 44 33.4417 43.4417 32.325 42.325C31.2083 41.2083 30.65 39.8667 30.65 38.3C30.65 38.0667 30.675 37.7917 30.725 37.475C30.775 37.1583 30.85 36.8667 30.95 36.6L15.8 27.8C15.3 28.3667 14.6833 28.825 13.95 29.175C13.2167 29.525 12.4667 29.7 11.7 29.7C10.1333 29.7 8.79167 29.1417 7.675 28.025C6.55833 26.9083 6 25.5667 6 24C6 22.4 6.55833 21.05 7.675 19.95C8.79167 18.85 10.1333 18.3 11.7 18.3C12.4667 18.3 13.2 18.45 13.9 18.75C14.6 19.05 15.2333 19.4833 15.8 20.05L30.95 11.35C30.85 11.1167 30.775 10.85 30.725 10.55C30.675 10.25 30.65 9.96667 30.65 9.7C30.65 8.1 31.2083 6.75 32.325 5.65C33.4417 4.55 34.7833 4 36.35 4C37.95 4 39.3 4.55 40.4 5.65C41.5 6.75 42.05 8.1 42.05 9.7C42.05 11.2667 41.5 12.6083 40.4 13.725C39.3 14.8417 37.95 15.4 36.35 15.4C35.5833 15.4 34.8417 15.275 34.125 15.025C33.4083 14.775 32.8 14.3667 32.3 13.8L17.15 22.2C17.2167 22.4667 17.275 22.775 17.325 23.125C17.375 23.475 17.4 23.7667 17.4 24C17.4 24.2333 17.375 24.4833 17.325 24.75C17.275 25.0167 17.2167 25.2833 17.15 25.55L32.3 34.15C32.8 33.6833 33.3833 33.3083 34.05 33.025C34.7167 32.7417 35.4833 32.6 36.35 32.6C37.95 32.6 39.3 33.15 40.4 34.25C41.5 35.35 42.05 36.7 42.05 38.3C42.05 39.8667 41.5 41.2083 40.4 42.325C39.3 43.4417 37.95 44 36.35 44ZM36.35 12.4C37.1167 12.4 37.7583 12.1417 38.275 11.625C38.7917 11.1083 39.05 10.4667 39.05 9.7C39.05 8.93333 38.7917 8.29167 38.275 7.775C37.7583 7.25833 37.1167 7 36.35 7C35.5833 7 34.9417 7.25833 34.425 7.775C33.9083 8.29167 33.65 8.93333 33.65 9.7C33.65 10.4667 33.9083 11.1083 34.425 11.625C34.9417 12.1417 35.5833 12.4 36.35 12.4ZM11.7 26.7C12.4667 26.7 13.1083 26.4417 13.625 25.925C14.1417 25.4083 14.4 24.7667 14.4 24C14.4 23.2333 14.1417 22.5917 13.625 22.075C13.1083 21.5583 12.4667 21.3 11.7 21.3C10.9333 21.3 10.2917 21.5583 9.775 22.075C9.25833 22.5917 9 23.2333 9 24C9 24.7667 9.25833 25.4083 9.775 25.925C10.2917 26.4417 10.9333 26.7 11.7 26.7ZM36.35 41C37.1167 41 37.7583 40.7417 38.275 40.225C38.7917 39.7083 39.05 39.0667 39.05 38.3C39.05 37.5333 38.7917 36.8917 38.275 36.375C37.7583 35.8583 37.1167 35.6 36.35 35.6C35.5833 35.6 34.9417 35.8583 34.425 36.375C33.9083 36.8917 33.65 37.5333 33.65 38.3C33.65 39.0667 33.9083 39.7083 34.425 40.225C34.9417 40.7417 35.5833 41 36.35 41Z" fill="black"/>
</svg>
